<?xml version="1.0" standalone="no"?>
<!DOCTYPE svg PUBLIC "-//W3C//DTD SVG 20010904//EN"
 "http://www.w3.org/TR/2001/REC-SVG-20010904/DTD/svg10.dtd">
<svg version="1.0" xmlns="http://www.w3.org/2000/svg"
 width="200.000000pt" height="200.000000pt" viewBox="0 0 200.000000 200.000000"
 preserveAspectRatio="xMidYMid meet">
<metadata>
Created by potrace 1.11, written by Peter Selinger 2001-2013
</metadata>
<g transform="translate(0.000000,200.000000) scale(0.100000,-0.100000)"
fill="#000000" stroke="none">
<path d="M880 1853 c-194 -71 -477 -133 -609 -133 -70 0 -67 8 -77 -187 -11
-214 21 -462 86 -654 110 -328 318 -573 618 -727 l100 -52 101 50 c410 206
647 584 702 1120 11 111 7 347 -7 418 l-6 32 -68 0 c-126 0 -399 61 -606 135
-54 19 -108 35 -119 34 -11 0 -63 -17 -115 -36z m-171 -220 c34 -29 37 -75 8
-108 -21 -25 -33 -29 -89 -33 l-64 -4 0 81 0 81 62 0 c44 0 68 -5 83 -17z
m162 -40 c20 -66 41 -69 37 -7 l-3 49 37 3 c32 3 39 -1 53 -27 19 -39 23 -39
17 -1 -4 28 -2 30 25 30 l30 0 0 -75 0 -75 -33 0 c-23 0 -38 7 -48 22 l-16 22
0 -22 c0 -20 -5 -21 -62 -21 -34 1 -71 6 -81 13 -15 8 -21 8 -24 -1 -3 -7 -18
-13 -34 -13 -24 0 -29 4 -29 24 0 13 6 39 14 57 7 19 16 42 19 52 5 12 17 17
45 17 37 0 39 -2 53 -47z m304 17 c19 -38 23 -38 17 -1 l-4 29 76 1 76 0 2
-37 1 -37 4 38 c4 38 4 38 46 35 51 -4 59 -25 23 -62 -17 -16 -26 -36 -26 -56
0 -29 -2 -30 -45 -30 -44 0 -45 1 -45 33 0 22 -8 41 -24 56 -30 28 -39 15 -30
-44 l6 -45 -35 0 c-26 0 -40 6 -51 22 l-16 22 0 -22 c0 -18 -6 -22 -34 -22
l-34 0 3 73 c1 39 3 73 4 75 0 1 17 2 36 2 28 0 37 -5 50 -30z m-168 -167 c39
-18 75 -72 77 -116 1 -28 -2 -32 -23 -29 -26 3 -87 -31 -100 -57 -14 -24 -2
-69 35 -131 l33 -55 -29 -30 c-64 -67 -90 -171 -66 -266 16 -60 16 -62 -4 -76
-15 -11 -20 -25 -20 -59 l0 -44 -105 0 -105 0 0 29 c0 19 19 57 50 104 27 41
50 84 50 95 0 12 5 24 10 27 16 10 12 77 -7 97 -12 13 -31 18 -73 18 -63 0
-86 15 -75 49 3 10 1 22 -4 25 -6 4 -9 23 -7 43 2 28 -2 37 -16 41 -24 6 -23
15 6 60 13 20 26 57 29 82 4 25 15 72 25 105 15 47 26 64 51 79 60 35 200 40
268 9z m173 -380 c52 -92 96 -170 98 -174 4 -10 -70 -58 -80 -53 -3 2 -23 33
-43 69 -20 36 -40 65 -44 65 -4 0 -15 -8 -23 -17 -64 -73 -64 -178 0 -247 41
-44 81 -56 182 -56 l90 0 0 -40 0 -40 -207 2 -208 3 -3 38 -3 37 45 0 45 0
-24 36 c-67 98 -56 226 26 315 l41 44 -37 68 c-20 38 -35 70 -33 72 8 7 74 45
78 45 3 -1 48 -76 100 -167z"/>
<path d="M640 1576 c0 -17 5 -26 16 -26 10 0 14 7 12 22 -5 32 -28 35 -28 4z"/>
<path d="M811 1564 c0 -11 3 -14 6 -6 3 7 2 16 -1 19 -3 4 -6 -2 -5 -13z"/>
</g>
</svg>
